<svg xmlns="http://www.w3.org/2000/svg" xmlns:xlink="http://www.w3.org/1999/xlink" viewBox="0,0,256,256" width="100px" height="100px" fill-rule="nonzero"><g fill="none" fill-rule="nonzero" stroke="none" stroke-width="1" stroke-linecap="butt" stroke-linejoin="miter" stroke-miterlimit="10" stroke-dasharray="" stroke-dashoffset="0" font-family="none" font-weight="none" font-size="none" text-anchor="none" style="mix-blend-mode: normal"><g transform="scale(2.56,2.56)"><path d="M69,82h-38c-7.18,0 -13,-5.82 -13,-13v-38c0,-7.18 5.82,-13 13,-13h38c7.18,0 13,5.82 13,13v38c0,7.18 -5.82,13 -13,13z" fill="#f15b6c"></path><path d="M66.5,78h-33c-6.341,0 -11.5,-5.159 -11.5,-11.5v-33c0,-6.341 5.159,-11.5 11.5,-11.5h33c0.353,0 0.701,0.021 1.046,0.053c0.275,0.025 0.477,0.269 0.452,0.544c-0.025,0.274 -0.258,0.476 -0.544,0.452c-0.315,-0.029 -0.632,-0.049 -0.954,-0.049h-33c-5.79,0 -10.5,4.71 -10.5,10.5v33c0,5.79 4.71,10.5 10.5,10.5h33c5.79,0 10.5,-4.71 10.5,-10.5v-17c0,-0.276 0.224,-0.5 0.5,-0.5c0.276,0 0.5,0.224 0.5,0.5v17c0,6.341 -5.159,11.5 -11.5,11.5zM77.5,40c-0.276,0 -0.5,-0.224 -0.5,-0.5v-2c0,-0.276 0.224,-0.5 0.5,-0.5c0.276,0 0.5,0.224 0.5,0.5v2c0,0.276 -0.224,0.5 -0.5,0.5zM77.5,47c-0.276,0 -0.5,-0.224 -0.5,-0.5v-4c0,-0.276 0.224,-0.5 0.5,-0.5c0.276,0 0.5,0.224 0.5,0.5v4c0,0.276 -0.224,0.5 -0.5,0.5z" fill="#1f212b"></path><path d="M69,83h-38c-7.72,0 -14,-6.28 -14,-14v-38c0,-7.72 6.28,-14 14,-14h38c7.72,0 14,6.28 14,14v38c0,7.72 -6.28,14 -14,14zM31,19c-6.617,0 -12,5.383 -12,12v38c0,6.617 5.383,12 12,12h38c6.617,0 12,-5.383 12,-12v-38c0,-6.617 -5.383,-12 -12,-12z" fill="#1f212b"></path><path d="M61.957,48.415c-3.208,0.557 -7.453,0.865 -11.957,0.865c-4.503,0 -8.749,-0.308 -11.955,-0.865c-3.593,-0.625 -5.423,-1.467 -5.901,-2.735c-0.086,0.228 -0.144,0.464 -0.144,0.72v7.2c0,1.685 1.809,2.719 6.045,3.455c3.205,0.557 7.452,0.865 11.955,0.865c4.504,0 8.749,-0.308 11.958,-0.865c4.234,-0.736 6.042,-1.77 6.042,-3.455v-7.2c0,-0.256 -0.056,-0.492 -0.141,-0.72c-0.479,1.268 -2.31,2.11 -5.902,2.735" fill="#fefdef"></path><path d="M61.957,59.935c-3.208,0.557 -7.453,0.865 -11.957,0.865c-4.503,0 -8.749,-0.308 -11.955,-0.865c-3.593,-0.625 -5.423,-1.467 -5.901,-2.735c-0.086,0.228 -0.144,0.464 -0.144,0.72v7.2c0,1.685 1.809,2.719 6.045,3.455c3.205,0.557 7.452,0.865 11.955,0.865c4.504,0 8.749,-0.308 11.958,-0.865c4.234,-0.736 6.042,-1.77 6.042,-3.455v-7.2c0,-0.256 -0.056,-0.492 -0.141,-0.72c-0.479,1.267 -2.31,2.11 -5.902,2.735" fill="#fefdef"></path><path d="M61.958,31.425c-3.208,-0.558 -7.454,-0.865 -11.958,-0.865c-4.503,0 -8.749,0.307 -11.956,0.865c-4.235,0.736 -6.044,1.77 -6.044,3.455v7.2c0,1.685 1.809,2.719 6.044,3.455c3.207,0.558 7.453,0.865 11.956,0.865c4.504,0 8.749,-0.307 11.958,-0.865c4.235,-0.737 6.042,-1.77 6.042,-3.455v-7.2c0,-1.685 -1.807,-2.719 -6.042,-3.455zM50,32c9.147,0 16.56,1.29 16.56,2.88c0,1.59 -7.413,2.88 -16.56,2.88c-9.145,0 -16.56,-1.29 -16.56,-2.88c0,-1.59 7.415,-2.88 16.56,-2.88z" fill="#fefdef"></path><path d="M56.235,41.517c-0.45,0 -0.83,-0.349 -0.861,-0.805c-0.032,-0.476 0.327,-0.889 0.804,-0.921c2.217,-0.151 4.207,-0.379 5.914,-0.676c0.606,-0.104 1.434,-0.247 2.278,-0.465c0.456,-0.12 0.933,0.158 1.053,0.621c0.119,0.462 -0.159,0.933 -0.621,1.052c-0.913,0.236 -1.781,0.385 -2.415,0.495c-1.765,0.307 -3.814,0.542 -6.092,0.697c-0.02,0.001 -0.04,0.002 -0.06,0.002z" fill="#f15b6c"></path><path d="M56.235,53.037c-0.45,0 -0.83,-0.349 -0.861,-0.805c-0.032,-0.476 0.327,-0.889 0.804,-0.921c2.212,-0.151 4.202,-0.379 5.914,-0.676c0.606,-0.104 1.434,-0.247 2.278,-0.465c0.456,-0.121 0.933,0.157 1.053,0.621c0.119,0.462 -0.159,0.933 -0.621,1.052c-0.913,0.236 -1.781,0.385 -2.415,0.495c-1.77,0.308 -3.819,0.542 -6.092,0.697c-0.02,0.001 -0.04,0.002 -0.06,0.002z" fill="#f15b6c"></path><path d="M56.235,64.556c-0.45,0 -0.83,-0.35 -0.861,-0.806c-0.032,-0.476 0.327,-0.888 0.804,-0.92c2.211,-0.151 4.201,-0.378 5.914,-0.676c0.606,-0.104 1.434,-0.247 2.278,-0.465c0.456,-0.12 0.933,0.158 1.053,0.621c0.119,0.462 -0.159,0.933 -0.621,1.052c-0.913,0.236 -1.781,0.385 -2.415,0.495c-1.771,0.308 -3.821,0.542 -6.092,0.697c-0.02,0.001 -0.04,0.002 -0.06,0.002z" fill="#f15b6c"></path></g></g><g fill="#000000" fill-rule="nonzero" stroke="none" stroke-width="1" stroke-linecap="butt" stroke-linejoin="miter" stroke-miterlimit="10" stroke-dasharray="" stroke-dashoffset="0" font-family="none" font-weight="none" font-size="none" text-anchor="none" style="mix-blend-mode: normal"><g id="text"><path d="M101.045,234.36v0c0,-0.99333 -0.35,-1.75667 -1.05,-2.29c-0.7,-0.52667 -1.96,-1.08667 -3.78,-1.68c-1.82,-0.58667 -3.26,-1.16667 -4.32,-1.74v0c-2.89333,-1.56 -4.34,-3.66667 -4.34,-6.32v0c0,-1.37333 0.38667,-2.6 1.16,-3.68c0.77333,-1.08 1.88667,-1.92333 3.34,-2.53c1.45333,-0.60667 3.08333,-0.91 4.89,-0.91v0c1.82,0 3.44333,0.33 4.87,0.99c1.42,0.66 2.52333,1.59 3.31,2.79c0.79333,1.2 1.19,2.56667 1.19,4.1v0h-5.25c0,-1.16667 -0.37,-2.07667 -1.11,-2.73c-0.73333,-0.64667 -1.76333,-0.97 -3.09,-0.97v0c-1.28667,0 -2.28667,0.27333 -3,0.82c-0.70667,0.54 -1.06,1.25333 -1.06,2.14v0c0,0.82667 0.41667,1.52 1.25,2.08c0.83333,0.56 2.06,1.08667 3.68,1.58v0c2.98667,0.9 5.16333,2.01333 6.53,3.34c1.36667,1.33333 2.05,2.99 2.05,4.97v0c0,2.20667 -0.83667,3.93667 -2.51,5.19c-1.66667,1.25333 -3.91,1.88 -6.73,1.88v0c-1.96,0 -3.74667,-0.36 -5.36,-1.08c-1.60667,-0.71333 -2.83333,-1.69333 -3.68,-2.94c-0.84667,-1.25333 -1.27,-2.7 -1.27,-4.34v0h5.27c0,2.80667 1.68,4.21 5.04,4.21v0c1.24667,0 2.22,-0.25333 2.92,-0.76c0.7,-0.50667 1.05,-1.21333 1.05,-2.12zM130.755,227.74v1.14c0,2.38 -0.38333,4.44667 -1.15,6.2c-0.77333,1.76 -1.84,3.17 -3.2,4.23v0l4.23,3.32l-3.34,2.96l-5.43,-4.36c-0.61333,0.10667 -1.25333,0.16 -1.92,0.16v0c-2.11333,0 -3.99667,-0.50667 -5.65,-1.52c-1.66,-1.01333 -2.94333,-2.46333 -3.85,-4.35c-0.91333,-1.88667 -1.37667,-4.05333 -1.39,-6.5v0v-1.26c0,-2.50667 0.45333,-4.71667 1.36,-6.63c0.90667,-1.90667 2.18333,-3.37 3.83,-4.39c1.65333,-1.02 3.54,-1.53 5.66,-1.53c2.12667,0 4.01333,0.51 5.66,1.53c1.65333,1.02 2.93333,2.48333 3.84,4.39c0.9,1.91333 1.35,4.11667 1.35,6.61zM125.435,228.97v-1.25c0,-2.66667 -0.47667,-4.69667 -1.43,-6.09c-0.96,-1.38667 -2.32667,-2.08 -4.1,-2.08v0c-1.76,0 -3.11667,0.68667 -4.07,2.06c-0.96,1.36667 -1.44667,3.37667 -1.46,6.03v0v1.24c0,2.6 0.48,4.61667 1.44,6.05c0.95333,1.44 2.33,2.16 4.13,2.16v0c1.76,0 3.11333,-0.69333 4.06,-2.08c0.94667,-1.38 1.42333,-3.39333 1.43,-6.04zM139.855,215.56v21.26h11.15v4.22h-16.4v-25.48zM167.545,230.02v-3.96h2.69c1.28667,0 2.23667,-0.32 2.85,-0.96c0.62,-0.64 0.93,-1.49333 0.93,-2.56v0c0,-1.02667 -0.30667,-1.82333 -0.92,-2.39c-0.60667,-0.57333 -1.44667,-0.86 -2.52,-0.86v0c-0.97333,0 -1.78667,0.26333 -2.44,0.79c-0.65333,0.53333 -0.98,1.22667 -0.98,2.08v0h-5.05c0,-1.33333 0.35667,-2.52667 1.07,-3.58c0.72,-1.05333 1.72333,-1.88 3.01,-2.48c1.28667,-0.59333 2.70667,-0.89 4.26,-0.89v0c2.7,0 4.81333,0.64333 6.34,1.93c1.52667,1.29333 2.29,3.07 2.29,5.33v0c0,1.16667 -0.35667,2.24 -1.07,3.22c-0.70667,0.98 -1.64,1.73333 -2.8,2.26v0c1.44,0.51333 2.51,1.28333 3.21,2.31c0.70667,1.02667 1.06,2.24 1.06,3.64v0c0,2.26667 -0.82333,4.08 -2.47,5.44c-1.65333,1.36667 -3.84,2.05 -6.56,2.05v0c-2.54,0 -4.62,-0.67 -6.24,-2.01c-1.61333,-1.34 -2.42,-3.11333 -2.42,-5.32v0h5.06c0,0.95333 0.35667,1.73333 1.07,2.34c0.72,0.60667 1.60667,0.91 2.66,0.91v0c1.2,0 2.14,-0.31667 2.82,-0.95c0.68,-0.63333 1.02,-1.47667 1.02,-2.53v0c0,-2.54 -1.39667,-3.81 -4.19,-3.81v0z"></path></g></g></svg>